<?xml version="1.0" encoding="utf-8"?>
<!-- Generator: Adobe Illustrator 23.0.4, SVG Export Plug-In . SVG Version: 6.00 Build 0)  -->
<svg version="1.1" id="Layer_1" xmlns="http://www.w3.org/2000/svg" xmlns:xlink="http://www.w3.org/1999/xlink" x="0px" y="0px"
	 viewBox="0 0 500 500" style="enable-background:new 0 0 500 500;" xml:space="preserve">
<style type="text/css">
	.st0{display:none;fill:url(#SVGID_1_);}
	.st1{fill:url(#SVGID_2_);}
	.st2{fill:url(#SVGID_3_);}
	.st3{fill:url(#SVGID_4_);}
	.st4{fill:url(#SVGID_5_);}
	.st5{fill:url(#SVGID_6_);}
	.st6{fill:url(#SVGID_7_);}
</style>
<linearGradient id="SVGID_1_" gradientUnits="userSpaceOnUse" x1="-4.5" y1="250" x2="504.5" y2="250">
	<stop  offset="1.322751e-03" style="stop-color:#0F0C29"/>
	<stop  offset="0.2042" style="stop-color:#1A173D"/>
	<stop  offset="0.5204" style="stop-color:#302B63"/>
	<stop  offset="0.6772" style="stop-color:#2C2856"/>
	<stop  offset="1" style="stop-color:#24243E"/>
</linearGradient>
<rect x="-4.5" y="-2.3" class="st0" width="509" height="504.7"/>
<g>
	<linearGradient id="SVGID_2_" gradientUnits="userSpaceOnUse" x1="250.5" y1="308.8401" x2="250.5" y2="217.8611">
		<stop  offset="0" style="stop-color:#ADE0E4"/>
		<stop  offset="0.2506" style="stop-color:#B4E0E7"/>
		<stop  offset="1" style="stop-color:#C4DFEE"/>
	</linearGradient>
	<polygon class="st1" points="175.4,262.2 250.5,217.9 325.6,262.2 250.4,308.8 	"/>
	<linearGradient id="SVGID_3_" gradientUnits="userSpaceOnUse" x1="184.7711" y1="355.3458" x2="184.7711" y2="89.9856">
		<stop  offset="0" style="stop-color:#AADCF1"/>
		<stop  offset="0.9675" style="stop-color:#8ABDD6"/>
	</linearGradient>
	<polygon class="st2" points="119,166.9 250.5,90 250.5,217.9 175.4,262.2 175.4,355.3 119,321.3 	"/>
	<linearGradient id="SVGID_4_" gradientUnits="userSpaceOnUse" x1="42.4991" y1="307.5944" x2="250.4269" y2="307.5944">
		<stop  offset="0" style="stop-color:#8893A3"/>
		<stop  offset="1" style="stop-color:#8FADBF"/>
	</linearGradient>
	<polygon class="st3" points="42.5,122.4 119,166.9 119,321.3 175.4,355.3 175.4,262.2 250.4,308.8 250.4,492.8 42.8,371.1 	"/>
	<linearGradient id="SVGID_5_" gradientUnits="userSpaceOnUse" x1="250.5" y1="222.6657" x2="381.9577" y2="222.6657">
		<stop  offset="0" style="stop-color:#8893A3"/>
		<stop  offset="1" style="stop-color:#8FADBF"/>
	</linearGradient>
	<polygon class="st4" points="382,166.9 250.5,90 250.5,217.9 325.6,262.2 325.6,355.3 382,321.3 	"/>
	<linearGradient id="SVGID_6_" gradientUnits="userSpaceOnUse" x1="354.4639" y1="492.8304" x2="354.4639" y2="122.3584">
		<stop  offset="0" style="stop-color:#AADCF1"/>
		<stop  offset="0.9675" style="stop-color:#8ABDD6"/>
	</linearGradient>
	<polygon class="st5" points="458.5,122.4 382,166.9 382,321.3 325.6,355.3 325.6,262.2 250.4,308.8 250.4,492.8 458.2,371.1 	"/>
	<linearGradient id="SVGID_7_" gradientUnits="userSpaceOnUse" x1="250.5" y1="166.8587" x2="250.5" y2="6.8975">
		<stop  offset="0" style="stop-color:#ADE0E4"/>
		<stop  offset="0.2506" style="stop-color:#B4E0E7"/>
		<stop  offset="1" style="stop-color:#C4DFEE"/>
	</linearGradient>
	<polygon class="st6" points="458.5,122.4 250.5,6.9 42.5,122.4 119,166.9 250.5,90 382,166.9 	"/>
</g>
</svg>
